# xmcd
# Track frame offsets:
# 150
# 11022
# 22822
# 32580
# 45772
# 56987
# 67335
# 79042
# 89625
# 100400
# 109635
# 121227
# 132787
# 143702
# 155850
# 167032
# 177525
# 189177
# 200675
# 210315
# 221407
# 230127
# 241010
# 252430
# 263445
# 273615
#
# Disc length: 3794 seconds
# Revision: 0
# Processed by: cddbd v1.5PL3 Copyright (c) Steve Scherf et al.
# Submitted via: VisiTrax 2.9.9.202 - For more info visit www.synapsa.com
#
DISCID=700ed01a
DTITLE=Hank Locklin - Hank Locklin 1955-1967
DYEAR=1999
DGENRE=Country
TTITLE0=Why Baby Why
TTITLE1=Love Or Spite
TTITLE2=Geisha Girl
TTITLE3=Livin' Alone
TTITLE4=Send Me The Pillow You Dream ON
TTITLE5=Why Don't You Haul Off And Love Me
TTITLE6=It's A Little More Like Heaven
TTITLE7=Blue Grass Skirt
TTITLE8=Please Help Me, I'm Fallin'
TTITLE9=My Old Hometown
TTITLE10=One Step Ahead Of My Past
TTITLE11=Toujours Moi (Alway Me)
TTITLE12=From Here To There To You
TTITLE13=This Song Is Just For You
TTITLE14=Happy Birthday To Me
TTITLE15=You're The Reason
TTITLE16=Happy Journey
TTITLE17=I Need You Now
TTITLE18=We're Gonna Go Fishin'
TTITLE19=Welcome Home, Mister Blues
TTITLE20=Flyin' South
TTITLE21=Behind The Footlights
TTITLE22=Wooden Soldier
TTITLE23=Kiss On The Door
TTITLE24=Followed Closely By My Teardrops
TTITLE25=You Never Want To Love Me
EXTD=Original RCA recordings.
EXTT0=
EXTT1=
EXTT2=
EXTT3=
EXTT4=
EXTT5=
EXTT6=
EXTT7=
EXTT8=
EXTT9=
EXTT10=
EXTT11=
EXTT12=
EXTT13=
EXTT14=
EXTT15=
EXTT16=
EXTT17=
EXTT18=
EXTT19=
EXTT20=
EXTT21=
EXTT22=
EXTT23=
EXTT24=
EXTT25=
PLAYORDER=
